<svg width="2412" height="720" viewBox="0 0 2412 720" fill="none" xmlns="http://www.w3.org/2000/svg">
<path d="M620.337 483C620.337 488.472 619.259 493.89 617.165 498.945C615.071 504 612.002 508.594 608.133 512.463C604.264 516.332 599.671 519.401 594.615 521.495C589.56 523.589 584.142 524.667 578.67 524.667H95.337C84.2863 524.667 73.6882 520.277 65.8742 512.463C58.0602 504.649 53.6703 494.051 53.6703 483C53.6703 471.949 58.0602 461.351 65.8742 453.537C73.6882 445.723 84.2863 441.333 95.337 441.333H578.67C584.142 441.333 589.56 442.411 594.615 444.505C599.671 446.599 604.264 449.668 608.133 453.537C612.002 457.406 615.071 462 617.165 467.055C619.259 472.11 620.337 477.528 620.337 483ZM578.67 258C578.67 258 574.47 253 545.337 241.333C503.67 224.667 153.67 224.667 128.67 241.333C111.27 252.933 95.337 258 95.337 258C84.2863 258 73.6882 262.39 65.8742 270.204C58.0602 278.018 53.6703 288.616 53.6703 299.667C53.6703 310.717 58.0602 321.315 65.8742 329.129C73.6882 336.943 84.2863 341.333 95.337 341.333H578.67C589.721 341.333 600.319 336.943 608.133 329.129C615.947 321.315 620.337 310.717 620.337 299.667C620.337 288.616 615.947 278.018 608.133 270.204C600.319 262.39 589.721 258 578.67 258Z" fill="#68362B"/>
<path d="M70.337 541.333V620.5C70.337 630.446 74.2879 639.984 81.3205 647.016C88.3531 654.049 97.8914 658 107.837 658H566.17C576.116 658 585.654 654.049 592.687 647.016C599.719 639.984 603.67 630.446 603.67 620.5V541.333H70.337ZM337.004 58C189.737 58 70.337 132.633 70.337 224.667H603.67C603.67 132.633 484.287 58 337.004 58Z" fill="#FFC107"/>
<path d="M53.6703 358H620.337V424.667H53.6703V358Z" fill="#FF3D00"/>
<path d="M187.004 174.667C187.004 176.855 187.435 179.023 188.272 181.045C189.11 183.067 190.338 184.904 191.885 186.452C193.433 187.999 195.27 189.227 197.292 190.065C199.314 190.902 201.482 191.333 203.67 191.333C205.859 191.333 208.026 190.902 210.048 190.065C212.071 189.227 213.908 187.999 215.455 186.452C217.003 184.904 218.231 183.067 219.068 181.045C219.906 179.023 220.337 176.855 220.337 174.667C220.337 172.478 219.906 170.311 219.068 168.289C218.231 166.267 217.003 164.429 215.455 162.882C213.908 161.334 212.071 160.106 210.048 159.269C208.026 158.431 205.859 158 203.67 158C201.482 158 199.314 158.431 197.292 159.269C195.27 160.106 193.433 161.334 191.885 162.882C190.338 164.429 189.11 166.267 188.272 168.289C187.435 170.311 187.004 172.478 187.004 174.667Z" fill="#CE8106"/>
<path d="M220.337 124.667C220.337 129.087 222.093 133.326 225.219 136.452C228.344 139.577 232.583 141.333 237.004 141.333C241.424 141.333 245.663 139.577 248.789 136.452C251.914 133.326 253.67 129.087 253.67 124.667C253.67 120.246 251.914 116.007 248.789 112.882C245.663 109.756 241.424 108 237.004 108C232.583 108 228.344 109.756 225.219 112.882C222.093 116.007 220.337 120.246 220.337 124.667Z" fill="#CE8106"/>
<path d="M253.67 174.667C253.67 179.087 255.426 183.326 258.552 186.452C261.678 189.577 265.917 191.333 270.337 191.333C274.757 191.333 278.997 189.577 282.122 186.452C285.248 183.326 287.004 179.087 287.004 174.667C287.004 170.246 285.248 166.007 282.122 162.882C278.997 159.756 274.757 158 270.337 158C265.917 158 261.678 159.756 258.552 162.882C255.426 166.007 253.67 170.246 253.67 174.667Z" fill="#CE8106"/>
<path d="M635.52 548.05C630.77 533.8 619.587 522.9 605.437 514.667C598.187 520.833 588.92 524.667 578.67 524.667H95.337C85.0083 524.639 75.063 520.751 67.4537 513.767C57.837 523.367 50.337 534.167 47.4204 543.917C40.6037 566.6 36.837 603.05 68.3204 600.867C82.9458 599.717 96.955 594.485 108.754 585.767C126.987 572.533 134.554 568.75 148.187 585.633C161.437 602.033 171.987 616.2 188.82 596.417C206.287 575.867 208.52 564.533 238.387 570.617C269.654 577 295.887 598.667 327.787 603.717C343.32 606.15 350.07 605.85 359.287 592.517C366.804 581.65 373.654 558.183 388.187 555.967C411.887 552.35 394.004 578.817 393.32 590.8C391.554 621.133 424.87 595.217 433.754 584.85C439.304 578.367 447.504 564.967 457.604 567.533C468.604 570.367 462.97 576.2 465.37 585.25C467.604 593.683 475.137 608.117 485.32 607.983C497.804 607.817 503.67 585.783 509.97 576.85C515.087 569.65 524.62 557.133 534.62 557.75C545.704 558.45 548.737 572.3 554.304 581.383C565.737 600.033 597.404 617.25 617.82 602.35C630.887 592.8 640.87 564.083 635.52 548.05ZM605.42 220.25H71.487C55.5204 227.017 43.3704 235.533 40.4537 245.25C33.587 267.933 34.5204 286.367 66.2537 284.183C80.9714 283.035 95.0774 277.806 106.987 269.083C125.37 255.85 132.987 252.067 146.737 268.95C160.087 285.35 170.72 299.517 187.67 279.733C205.27 259.183 207.52 247.85 237.604 253.933C269.137 260.317 295.554 281.983 327.72 287.033C343.354 289.467 350.204 289.167 359.437 275.833C367.02 264.967 373.92 241.5 388.587 239.283C412.47 235.667 394.454 262.133 393.754 274.117C391.987 304.45 425.537 278.533 434.487 268.167C440.087 261.683 448.354 248.283 458.52 250.85C469.604 253.683 463.937 259.517 466.354 268.567C468.604 277 476.204 291.433 486.454 291.3C499.054 291.133 504.954 269.1 511.32 260.167C516.454 252.967 526.07 240.45 536.137 241.067C547.304 241.767 550.37 255.617 555.954 264.7C567.47 283.35 599.404 300.567 619.97 285.667C633.154 276.117 633.304 269.617 627.887 253.583C623.837 241.45 615.704 230.233 605.42 220.25Z" fill="#8BC34A"/>
<path d="M587.004 441.333C337.004 441.333 237.004 491.333 237.004 491.333C237.004 491.333 170.337 441.333 87.0037 441.333V424.667H587.004V441.333ZM87.0037 358C337.004 358 437.004 408 437.004 408C437.004 408 503.67 358 587.004 358V341.333H87.0037V358Z" fill="#FFEB3B"/>
<path d="M732.245 357.373C723.962 357.373 717.927 354.71 714.14 349.385C710.353 343.942 707.809 335.54 706.508 324.18C706.153 318.5 705.857 312.642 705.62 306.607C705.383 300.572 705.206 294.537 705.088 288.502C705.088 282.349 705.147 276.255 705.265 270.22C705.502 264.185 705.679 258.268 705.798 252.47C706.271 240.518 707.099 228.567 708.283 216.615C709.584 204.663 711.478 193.007 713.963 181.647C716.448 170.287 719.702 159.578 723.725 149.52C726.802 143.485 730.648 139.107 735.263 136.385C739.878 133.545 745.439 132.125 751.948 132.125C757.273 132.125 761.473 133.782 764.55 137.095C767.627 140.408 769.165 144.727 769.165 150.052C769.165 152.774 768.869 156.62 768.278 161.59C767.804 166.442 767.153 171.767 766.325 177.565C765.615 183.363 764.846 189.102 764.018 194.782C763.308 200.344 762.716 205.373 762.243 209.87C761.769 214.248 761.592 217.384 761.71 219.277C762.065 221.762 762.657 223.597 763.485 224.78C764.313 225.845 765.852 226.377 768.1 226.377C769.993 226.377 772.123 225.786 774.49 224.602C776.857 223.301 779.46 221.467 782.3 219.1C789.045 213.657 797.743 206.793 808.393 198.51C819.161 190.108 830.107 181.529 841.23 172.772C850.697 165.317 858.98 159.46 866.08 155.2C873.298 150.822 879.393 148.632 884.363 148.632C888.386 148.632 891.581 149.402 893.948 150.94C896.314 152.36 898.03 154.312 899.095 156.797C900.278 159.164 900.87 161.708 900.87 164.43C900.87 166.442 900.219 168.69 898.918 171.175C897.734 173.66 895.9 176.322 893.415 179.162C891.048 182.002 888.09 185.02 884.54 188.215C881.108 191.41 877.144 194.723 872.648 198.155C866.376 202.77 859.453 207.681 851.88 212.887C844.307 217.976 836.911 222.827 829.693 227.442C822.474 231.939 816.38 235.667 811.41 238.625C807.387 240.755 804.488 242.53 802.713 243.95C800.938 245.37 800.05 246.731 800.05 248.032C800.05 249.216 800.523 250.458 801.47 251.76C802.417 253.062 804.073 254.718 806.44 256.73C808.333 258.505 811.233 261.108 815.138 264.54C819.161 267.972 823.598 271.817 828.45 276.077C833.302 280.219 838.035 284.361 842.65 288.502C847.383 292.526 851.525 296.194 855.075 299.507C858.743 302.702 861.347 304.951 862.885 306.252C872.707 315.364 879.688 322.642 883.83 328.085C888.09 333.41 890.22 337.492 890.22 340.332C890.22 344.237 889.392 347.373 887.735 349.74C886.078 351.988 883.771 353.645 880.813 354.71C877.854 355.893 874.423 356.485 870.518 356.485C865.784 356.485 860.045 354.71 853.3 351.16C846.673 347.492 838.272 341.102 828.095 331.99C818.51 323.115 810.641 315.66 804.488 309.625C798.453 303.59 793.483 298.561 789.578 294.537C785.791 290.514 782.537 287.023 779.815 284.065C777.212 280.988 774.49 277.971 771.65 275.012C769.402 272.054 767.568 269.806 766.148 268.267C764.728 266.611 763.485 265.487 762.42 264.895C761.473 264.185 760.527 263.83 759.58 263.83C758.278 263.83 757.332 264.422 756.74 265.605C756.148 266.788 755.853 268.563 755.853 270.93C755.853 271.522 755.793 273.415 755.675 276.61C755.675 279.687 755.616 283.355 755.498 287.615C755.498 291.875 755.379 296.253 755.143 300.75C755.024 305.128 754.906 309.152 754.788 312.82C754.788 316.37 754.728 318.855 754.61 320.275C753.9 334.12 751.829 343.764 748.398 349.207C744.966 354.651 739.582 357.373 732.245 357.373ZM991.301 371.218C981.716 371.218 972.604 370.271 963.966 368.378C955.446 366.484 947.872 363.467 941.246 359.325C934.619 355.183 929.412 349.799 925.626 343.172C921.839 336.546 919.946 328.44 919.946 318.855C919.946 307.968 922.608 299.034 927.933 292.052C933.258 285.071 940.477 279.627 949.588 275.722C958.818 271.699 969.172 268.918 980.651 267.38C992.129 265.842 1004.02 265.072 1016.33 265.072C1020.11 265.072 1023.96 265.191 1027.87 265.427C1031.77 265.664 1035.44 265.901 1038.87 266.137C1042.42 266.374 1045.32 266.492 1047.57 266.492C1050.64 266.492 1052.72 266.019 1053.78 265.072C1054.85 264.007 1055.38 262.232 1055.38 259.747C1055.38 255.132 1054.79 251.05 1053.6 247.5C1052.54 243.95 1050.94 240.814 1048.81 238.092C1046.68 235.371 1044.14 233.063 1041.18 231.17C1036.44 227.975 1030.71 225.727 1023.96 224.425C1017.33 223.005 1010.17 222.295 1002.48 222.295C993.372 222.295 985.266 223.242 978.166 225.135C971.184 227.028 964.972 228.981 959.528 230.992C954.085 233.004 949.115 234.01 944.618 234.01C938.465 234.01 933.732 233.004 930.418 230.992C927.105 228.981 925.448 225.727 925.448 221.23C925.448 216.615 927.401 212.355 931.306 208.45C935.211 204.545 940.595 201.113 947.458 198.155C954.44 195.197 962.487 192.889 971.598 191.232C980.828 189.576 990.65 188.747 1001.06 188.747C1022.01 188.747 1039.52 191.41 1053.6 196.735C1067.8 201.942 1078.45 210.462 1085.55 222.295C1092.65 234.01 1096.2 249.807 1096.2 269.687C1096.2 275.604 1095.91 280.752 1095.32 285.13C1094.72 289.508 1093.95 293.354 1093.01 296.667C1092.18 299.862 1091.47 302.643 1090.88 305.01C1090.29 307.377 1089.99 309.566 1089.99 311.577C1089.99 314.417 1090.88 317.139 1092.65 319.742C1094.55 322.227 1096.74 324.712 1099.22 327.197C1101.82 329.682 1104.07 332.345 1105.97 335.185C1107.86 337.907 1108.81 340.983 1108.81 344.415C1108.81 349.503 1107.15 353.172 1103.84 355.42C1100.52 357.668 1096.85 358.793 1092.83 358.793C1089.16 358.793 1086.09 357.55 1083.6 355.065C1081.23 352.698 1079.04 350.332 1077.03 347.965C1075.14 345.598 1072.77 344.415 1069.93 344.415C1068.28 344.415 1066.44 344.888 1064.43 345.835C1062.54 346.782 1060.17 348.261 1057.33 350.272C1053.78 352.876 1049.22 355.775 1043.66 358.97C1038.22 362.283 1031.24 365.123 1022.72 367.49C1014.2 369.975 1003.73 371.218 991.301 371.218ZM996.093 344.06C1003.43 344.06 1010.53 342.936 1017.39 340.687C1024.26 338.321 1030.41 335.126 1035.85 331.102C1041.3 326.961 1045.62 322.168 1048.81 316.725C1052.01 311.163 1053.6 305.187 1053.6 298.797C1053.6 294.774 1052.24 291.875 1049.52 290.1C1046.92 288.325 1042.6 287.201 1036.56 286.727C1030.53 286.254 1022.54 286.017 1012.6 286.017C1002.78 286.017 993.667 287.023 985.266 289.035C976.864 290.928 970.119 294.182 965.031 298.797C959.942 303.294 957.398 309.447 957.398 317.257C957.398 323.292 958.937 328.262 962.013 332.167C965.09 336.072 969.527 339.031 975.326 341.042C981.124 343.054 988.047 344.06 996.093 344.06ZM1168.7 358.615C1165.27 358.615 1162.2 357.905 1159.47 356.485C1156.75 355.183 1154.27 353.349 1152.02 350.982C1149.89 348.616 1147.94 345.835 1146.16 342.64C1144.03 338.143 1142.08 332.937 1140.3 327.02C1138.53 321.103 1136.99 314.95 1135.69 308.56C1134.51 302.052 1133.62 295.602 1133.03 289.212C1132.43 282.822 1132.14 276.906 1132.14 271.462C1132.14 252.174 1135.75 235.844 1142.97 222.472C1150.18 209.101 1160.6 198.924 1174.21 191.942C1187.81 184.961 1204.14 181.47 1223.2 181.47C1231.24 181.47 1238.93 182.062 1246.27 183.245C1253.73 184.428 1260.35 186.203 1266.15 188.57C1271.95 190.818 1276.51 193.658 1279.82 197.09C1283.25 200.403 1284.97 204.249 1284.97 208.627C1284.97 212.177 1284.2 215.077 1282.66 217.325C1281.12 219.455 1279.11 220.993 1276.62 221.94C1274.26 222.887 1271.77 223.36 1269.17 223.36C1263.73 223.36 1257.75 222.472 1251.24 220.697C1244.85 218.804 1236.51 217.857 1226.21 217.857C1210.71 217.857 1199.06 222.65 1191.25 232.235C1183.55 241.82 1179.71 254.837 1179.71 271.285C1179.71 277.202 1180 282.941 1180.6 288.502C1181.19 293.946 1181.9 299.212 1182.73 304.3C1183.55 309.27 1184.38 313.885 1185.21 318.145C1186.04 322.405 1186.69 326.192 1187.16 329.505C1187.76 332.818 1188.05 335.54 1188.05 337.67C1188.05 345.007 1186.39 350.332 1183.08 353.645C1179.89 356.958 1175.09 358.615 1168.7 358.615ZM1384.1 363.408C1366.71 363.408 1351.62 360.449 1338.84 354.533C1326.18 348.616 1316.36 339.859 1309.38 328.262C1302.51 316.547 1299.08 302.111 1299.08 284.952C1299.08 268.859 1302.22 255.251 1308.49 244.127C1314.76 233.004 1323.75 224.602 1335.47 218.922C1347.18 213.124 1361.21 210.225 1377.54 210.225C1386.53 210.225 1393.98 211.231 1399.9 213.242C1405.94 215.136 1410.85 217.147 1414.63 219.277C1417.35 220.816 1419.78 222.177 1421.91 223.36C1424.16 224.543 1425.76 225.135 1426.7 225.135C1428.6 225.135 1429.54 223.419 1429.54 219.987C1429.54 216.911 1429.25 213.006 1428.66 208.272C1428.06 203.421 1427.35 198.155 1426.53 192.475C1425.82 186.795 1424.99 181.115 1424.04 175.435C1423.21 169.755 1422.5 164.489 1421.91 159.637C1421.44 154.786 1421.2 150.881 1421.2 147.922C1421.2 133.959 1428 126.977 1441.61 126.977C1446.46 126.977 1450.96 128.161 1455.1 130.527C1459.36 132.776 1462.79 136.267 1465.4 141C1467.17 145.142 1468.89 150.822 1470.55 158.04C1472.2 165.258 1473.74 173.305 1475.16 182.18C1476.7 191.055 1478 200.048 1479.07 209.16C1480.25 218.272 1481.14 226.792 1481.73 234.72C1482.44 242.648 1482.79 249.334 1482.79 254.777C1482.79 279.272 1479.48 299.567 1472.85 315.66C1466.34 331.753 1455.81 343.764 1441.26 351.692C1426.82 359.503 1407.77 363.408 1384.1 363.408ZM1385.35 336.605C1396.23 336.605 1405.4 334.593 1412.86 330.57C1420.31 326.547 1425.93 320.807 1429.72 313.352C1433.63 305.779 1435.58 296.786 1435.58 286.372C1435.58 276.077 1433.68 267.498 1429.9 260.635C1426.11 253.653 1420.79 248.387 1413.92 244.837C1407.06 241.287 1398.78 239.512 1389.07 239.512C1378.54 239.512 1369.37 241.347 1361.56 245.015C1353.75 248.683 1347.72 254.127 1343.46 261.345C1339.2 268.445 1337.07 277.32 1337.07 287.97C1337.07 297.91 1339.08 306.548 1343.1 313.885C1347.12 321.103 1352.74 326.724 1359.96 330.747C1367.18 334.652 1375.64 336.605 1385.35 336.605ZM1582.04 371.218C1572.46 371.218 1563.35 370.271 1554.71 368.378C1546.19 366.484 1538.61 363.467 1531.99 359.325C1525.36 355.183 1520.15 349.799 1516.37 343.172C1512.58 336.546 1510.69 328.44 1510.69 318.855C1510.69 307.968 1513.35 299.034 1518.68 292.052C1524 285.071 1531.22 279.627 1540.33 275.722C1549.56 271.699 1559.91 268.918 1571.39 267.38C1582.87 265.842 1594.76 265.072 1607.07 265.072C1610.86 265.072 1614.7 265.191 1618.61 265.427C1622.51 265.664 1626.18 265.901 1629.61 266.137C1633.16 266.374 1636.06 266.492 1638.31 266.492C1641.39 266.492 1643.46 266.019 1644.52 265.072C1645.59 264.007 1646.12 262.232 1646.12 259.747C1646.12 255.132 1645.53 251.05 1644.35 247.5C1643.28 243.95 1641.68 240.814 1639.55 238.092C1637.42 235.371 1634.88 233.063 1631.92 231.17C1627.19 227.975 1621.45 225.727 1614.7 224.425C1608.08 223.005 1600.92 222.295 1593.23 222.295C1584.11 222.295 1576.01 223.242 1568.91 225.135C1561.93 227.028 1555.71 228.981 1550.27 230.992C1544.83 233.004 1539.86 234.01 1535.36 234.01C1529.21 234.01 1524.47 233.004 1521.16 230.992C1517.85 228.981 1516.19 225.727 1516.19 221.23C1516.19 216.615 1518.14 212.355 1522.05 208.45C1525.95 204.545 1531.34 201.113 1538.2 198.155C1545.18 195.197 1553.23 192.889 1562.34 191.232C1571.57 189.576 1581.39 188.747 1591.81 188.747C1612.75 188.747 1630.26 191.41 1644.35 196.735C1658.55 201.942 1669.2 210.462 1676.3 222.295C1683.4 234.01 1686.95 249.807 1686.95 269.687C1686.95 275.604 1686.65 280.752 1686.06 285.13C1685.47 289.508 1684.7 293.354 1683.75 296.667C1682.92 299.862 1682.21 302.643 1681.62 305.01C1681.03 307.377 1680.73 309.566 1680.73 311.577C1680.73 314.417 1681.62 317.139 1683.4 319.742C1685.29 322.227 1687.48 324.712 1689.96 327.197C1692.57 329.682 1694.81 332.345 1696.71 335.185C1698.6 337.907 1699.55 340.983 1699.55 344.415C1699.55 349.503 1697.89 353.172 1694.58 355.42C1691.26 357.668 1687.6 358.793 1683.57 358.793C1679.9 358.793 1676.83 357.55 1674.34 355.065C1671.98 352.698 1669.79 350.332 1667.78 347.965C1665.88 345.598 1663.52 344.415 1660.68 344.415C1659.02 344.415 1657.18 344.888 1655.17 345.835C1653.28 346.782 1650.91 348.261 1648.07 350.272C1644.52 352.876 1639.97 355.775 1634.41 358.97C1628.96 362.283 1621.98 365.123 1613.46 367.49C1604.94 369.975 1594.47 371.218 1582.04 371.218ZM1586.84 344.06C1594.17 344.06 1601.27 342.936 1608.14 340.687C1615 338.321 1621.15 335.126 1626.6 331.102C1632.04 326.961 1636.36 322.168 1639.55 316.725C1642.75 311.163 1644.35 305.187 1644.35 298.797C1644.35 294.774 1642.98 291.875 1640.26 290.1C1637.66 288.325 1633.34 287.201 1627.31 286.727C1621.27 286.254 1613.28 286.017 1603.34 286.017C1593.52 286.017 1584.41 287.023 1576.01 289.035C1567.61 290.928 1560.86 294.182 1555.77 298.797C1550.68 303.294 1548.14 309.447 1548.14 317.257C1548.14 323.292 1549.68 328.262 1552.76 332.167C1555.83 336.072 1560.27 339.031 1566.07 341.042C1571.87 343.054 1578.79 344.06 1586.84 344.06ZM1745.71 437.248C1742.4 437.248 1739.44 436.419 1736.84 434.763C1734.35 433.106 1732.16 430.384 1730.27 426.598C1728.38 422.929 1726.78 418.018 1725.48 411.865C1724.65 406.777 1723.88 401.274 1723.17 395.358C1722.46 389.559 1721.81 383.583 1721.22 377.43C1720.74 371.395 1720.33 365.183 1719.97 358.793C1719.62 352.521 1719.32 346.367 1719.09 340.332C1718.97 334.297 1718.91 328.44 1718.91 322.76C1718.91 298.147 1722.4 276.373 1729.38 257.44C1736.48 238.388 1747.49 223.478 1762.4 212.71C1777.31 201.823 1796.6 196.38 1820.26 196.38C1835.29 196.38 1848.48 198.51 1859.84 202.77C1871.32 206.912 1880.91 212.828 1888.6 220.52C1896.29 228.093 1902.03 237.146 1905.82 247.677C1909.72 258.091 1911.67 269.628 1911.67 282.29C1911.67 295.07 1909.84 306.548 1906.17 316.725C1902.62 326.783 1896.94 335.362 1889.13 342.462C1881.32 349.562 1871.2 354.947 1858.78 358.615C1846.35 362.283 1831.21 364.118 1813.34 364.118C1805.06 364.118 1798.19 363.467 1792.75 362.165C1787.31 360.982 1782.99 359.739 1779.79 358.438C1776.6 357.254 1774.23 356.663 1772.69 356.663C1770.44 356.663 1768.73 357.373 1767.54 358.793C1766.48 360.213 1765.77 363.289 1765.41 368.023C1765.06 370.389 1764.82 373.821 1764.7 378.318C1764.59 382.933 1764.41 387.843 1764.17 393.05C1764.05 398.375 1763.94 403.286 1763.82 407.783C1763.82 412.279 1763.76 415.711 1763.64 418.078C1763.17 425.296 1761.39 430.266 1758.31 432.988C1755.36 435.828 1751.16 437.248 1745.71 437.248ZM1806.95 332.167C1823.63 332.167 1836.83 330.037 1846.53 325.777C1856.24 321.517 1863.16 315.364 1867.3 307.317C1871.56 299.152 1873.69 289.449 1873.69 278.207C1873.69 269.451 1872.21 261.227 1869.25 253.535C1866.29 245.725 1861.03 239.394 1853.45 234.542C1845.88 229.691 1835.23 227.265 1821.5 227.265C1811.8 227.265 1803.46 228.922 1796.48 232.235C1789.5 235.43 1783.82 240.045 1779.44 246.08C1775.18 252.115 1772.04 259.215 1770.03 267.38C1768.02 275.545 1767.01 284.657 1767.01 294.715C1767.01 304.773 1768.2 312.524 1770.56 317.967C1772.93 323.292 1777.01 327.02 1782.81 329.15C1788.73 331.162 1796.77 332.167 1806.95 332.167ZM1962.1 422.693C1956.89 422.693 1952.75 421.332 1949.67 418.61C1946.71 415.888 1945.24 412.575 1945.24 408.67C1945.24 404.292 1946.89 400.268 1950.21 396.6C1953.64 393.05 1958.19 389.855 1963.87 387.015C1970.03 383.11 1976.18 378.85 1982.33 374.235C1988.49 369.62 1994.11 365.005 1999.2 360.39C2004.4 355.775 2008.54 351.456 2011.62 347.432C2014.82 343.409 2016.41 340.096 2016.41 337.492C2016.41 335.126 2014.7 332.404 2011.27 329.327C2007.95 326.132 2002.57 322.287 1995.11 317.79C1988.96 313.767 1982.81 308.856 1976.65 303.057C1970.62 297.259 1964.94 290.869 1959.61 283.887C1954.29 276.906 1949.55 269.747 1945.41 262.41C1941.27 255.073 1938.02 247.914 1935.65 240.932C1933.4 233.832 1932.28 227.265 1932.28 221.23C1932.28 217.325 1933.17 213.834 1934.94 210.757C1936.72 207.562 1939.14 205.077 1942.22 203.302C1945.29 201.527 1948.79 200.64 1952.69 200.64C1958.96 200.64 1964.29 202.237 1968.67 205.432C1973.04 208.509 1977.07 214.071 1980.74 222.117C1985.71 235.844 1991.39 248.565 1997.78 260.28C2004.17 271.995 2010.44 281.876 2016.59 289.922C2020.02 294.064 2023.51 297.614 2027.06 300.572C2030.61 303.531 2033.45 305.01 2035.58 305.01C2038.78 305.01 2041.85 303.412 2044.81 300.217C2047.89 297.022 2050.43 293.65 2052.45 290.1C2058.95 279.805 2064.52 268.741 2069.13 256.907C2073.75 244.956 2078.3 232.708 2082.8 220.165C2085.64 214.012 2088.95 208.923 2092.74 204.9C2096.64 200.877 2101.14 198.865 2106.23 198.865C2113.56 198.865 2118.71 200.758 2121.67 204.545C2124.63 208.332 2126.11 213.302 2126.11 219.455C2126.11 226.673 2124.87 234.779 2122.38 243.772C2119.9 252.647 2116.52 261.877 2112.26 271.462C2108.12 281.047 2103.51 290.455 2098.42 299.685C2093.33 308.915 2088.06 317.553 2082.62 325.6C2077.18 333.528 2071.97 340.392 2067 346.19C2059.31 355.065 2050.91 363.999 2041.8 372.993C2032.8 382.104 2023.57 390.388 2014.11 397.843C2004.76 405.416 1995.59 411.451 1986.59 415.948C1977.72 420.444 1969.55 422.693 1962.1 422.693ZM2248.7 363.408C2234.97 363.408 2221.72 361.869 2208.94 358.793C2196.28 355.716 2184.92 350.805 2174.86 344.06C2164.92 337.315 2157.05 328.558 2151.25 317.79C2145.45 306.903 2142.55 293.65 2142.55 278.03C2142.55 260.872 2145.33 245.902 2150.89 233.122C2156.57 220.224 2164.38 209.515 2174.32 200.995C2184.26 192.357 2195.74 185.907 2208.76 181.647C2221.89 177.269 2235.92 175.08 2250.83 175.08C2264.32 175.08 2277.51 176.796 2290.41 180.227C2303.31 183.659 2314.9 189.043 2325.2 196.38C2335.49 203.717 2343.66 213.242 2349.69 224.957C2355.85 236.554 2358.92 250.577 2358.92 267.025C2358.92 279.45 2356.38 291.402 2351.29 302.88C2346.32 314.358 2339.04 324.653 2329.46 333.765C2319.99 342.758 2308.46 349.917 2294.85 355.243C2281.36 360.686 2265.97 363.408 2248.7 363.408ZM2247.1 324.18C2259.17 324.18 2269.41 322.346 2277.81 318.677C2286.21 314.891 2293.01 309.98 2298.22 303.945C2303.54 297.792 2307.39 291.106 2309.76 283.887C2312.24 276.669 2313.48 269.51 2313.48 262.41C2313.48 252.47 2311.53 244.068 2307.63 237.205C2303.84 230.223 2298.75 224.602 2292.36 220.342C2286.09 216.082 2279.05 213.006 2271.24 211.112C2263.43 209.101 2255.44 208.095 2247.28 208.095C2236.63 208.095 2226.57 210.402 2217.1 215.017C2207.64 219.514 2199.94 226.377 2194.03 235.607C2188.23 244.719 2185.33 256.257 2185.33 270.22C2185.33 281.58 2187.64 291.342 2192.25 299.507C2196.99 307.554 2203.97 313.707 2213.2 317.967C2222.43 322.109 2233.73 324.18 2247.1 324.18Z" fill="black"/>
<path d="M701.567 601V418.887C701.567 416.914 701.926 415.48 702.643 414.583C703.36 413.686 705.243 413.148 708.292 412.969C711.341 412.79 716.452 412.7 723.625 412.7V580.556H769.893V596.696C769.893 598.489 769.445 599.655 768.548 600.193C767.831 600.731 766.844 601 765.589 601H701.567ZM789.652 601.538C788.217 601.538 786.245 601.448 783.734 601.269C781.223 601.09 778.623 600.91 775.933 600.731L823.815 415.659C824.353 413.148 827.133 411.893 832.154 411.893C833.947 411.893 835.741 411.983 837.534 412.162C839.507 412.341 841.121 412.521 842.376 412.7L890.527 596.965C890.886 598.4 890.437 599.565 889.182 600.462C888.106 601.179 885.416 601.538 881.112 601.538C879.498 601.538 877.615 601.448 875.463 601.269C873.49 601.269 871.069 601.179 868.2 601L842.914 495.014C841.479 488.917 840.134 482.73 838.879 476.453C837.624 470.176 836.458 464.169 835.382 458.43C834.485 452.512 833.858 447.401 833.499 443.097C833.14 447.401 832.423 452.512 831.347 458.43C830.45 464.169 829.374 470.176 828.119 476.453C826.864 482.73 825.429 488.917 823.815 495.014L799.874 597.234C799.515 598.669 798.798 599.745 797.722 600.462C796.646 601.179 793.956 601.538 789.652 601.538ZM803.64 553.118V533.212H867.931V553.118H803.64ZM978.381 601L947.446 527.025C946.37 524.156 944.845 520.121 942.873 514.92C941.079 509.54 939.107 503.532 936.955 496.897C934.803 490.262 932.561 483.626 930.23 476.991C928.078 470.176 926.015 463.9 924.043 458.161C922.249 452.422 920.815 447.849 919.739 444.442C918.663 440.855 918.125 439.062 918.125 439.062L905.751 425.612L907.365 412.7H924.043L954.171 485.33C955.426 488.379 956.95 492.683 958.744 498.242C960.716 503.622 962.779 509.63 964.931 516.265C967.083 522.721 969.235 529.267 971.387 535.902C973.539 542.358 975.511 548.366 977.305 553.925C979.098 559.484 980.533 563.968 981.609 567.375C982.864 570.603 983.492 572.217 983.492 572.217L996.673 588.088L994.521 601H978.381ZM902.792 601V417.004C902.792 414.135 904.316 412.7 907.365 412.7L924.581 417.004L921.622 448.477C921.98 450.988 922.249 454.485 922.429 458.968C922.787 463.451 923.056 468.473 923.236 474.032C923.415 479.412 923.594 485.061 923.774 490.979C923.953 496.897 924.132 502.546 924.312 507.926C924.491 513.306 924.581 518.058 924.581 522.183C924.581 526.308 924.581 529.356 924.581 531.329V596.696C924.581 598.131 924.222 599.117 923.505 599.655C922.967 600.193 921.173 600.552 918.125 600.731C915.255 600.91 910.144 601 902.792 601ZM994.521 601L977.305 596.696L979.726 560.65C979.367 557.96 979.098 554.463 978.919 550.159C978.739 545.676 978.56 540.834 978.381 535.633C978.201 530.253 978.022 524.783 977.843 519.224C977.663 513.665 977.484 508.374 977.305 503.353C977.305 498.152 977.305 493.579 977.305 489.634C977.305 485.689 977.305 482.64 977.305 480.488V417.004C977.305 415.569 977.574 414.583 978.112 414.045C978.829 413.507 980.712 413.148 983.761 412.969C986.809 412.79 991.92 412.7 999.094 412.7V596.696C999.094 599.565 997.569 601 994.521 601ZM1063.47 603.69C1058.27 603.69 1053.43 603.062 1048.95 601.807C1044.47 600.552 1040.34 598.22 1036.57 594.813C1032.99 591.406 1029.85 586.474 1027.16 580.018C1024.47 573.383 1022.41 564.775 1020.97 554.194C1019.54 543.434 1018.82 530.253 1018.82 514.651C1018.82 496.18 1019.81 480.757 1021.78 468.383C1023.93 455.83 1026.8 445.787 1030.39 438.255C1033.97 430.544 1038.01 424.626 1042.49 420.501C1047.16 416.376 1052 413.597 1057.02 412.162C1062.04 410.727 1066.97 410.01 1071.81 410.01C1078.45 410.01 1083.56 410.817 1087.15 412.431C1090.91 413.866 1093.51 415.749 1094.95 418.08C1096.38 420.232 1097.1 422.474 1097.1 424.805C1097.1 427.316 1096.74 429.737 1096.02 432.068C1095.31 434.399 1094.5 436.372 1093.6 437.986C1092.71 437.269 1091.36 436.462 1089.57 435.565C1087.95 434.489 1085.98 433.592 1083.65 432.875C1081.32 431.978 1078.81 431.53 1076.12 431.53C1072.71 431.53 1069.3 432.158 1065.9 433.413C1062.67 434.489 1059.53 436.731 1056.48 440.138C1053.61 443.366 1051.1 448.029 1048.95 454.126C1046.8 460.223 1045 468.114 1043.57 477.798C1042.31 487.482 1041.69 499.408 1041.69 513.575C1041.69 527.204 1042.31 538.323 1043.57 546.931C1045 555.539 1046.89 562.264 1049.22 567.106C1051.55 571.769 1054.33 574.997 1057.56 576.79C1060.96 578.583 1064.64 579.48 1068.59 579.48C1073.79 579.48 1078.63 578.583 1083.11 576.79C1087.6 574.997 1091 573.114 1093.33 571.141C1094.23 572.934 1095.04 574.997 1095.75 577.328C1096.47 579.659 1096.83 581.991 1096.83 584.322C1096.83 587.729 1095.4 590.957 1092.53 594.006C1089.84 596.875 1085.98 599.207 1080.96 601C1075.94 602.793 1070.11 603.69 1063.47 603.69ZM1178.83 601V417.004C1178.83 415.569 1179.1 414.583 1179.63 414.045C1180.35 413.507 1182.15 413.148 1185.01 412.969C1188.06 412.79 1193.26 412.7 1200.62 412.7V596.696C1200.62 598.131 1200.35 599.117 1199.81 599.655C1199.27 600.193 1197.48 600.552 1194.43 600.731C1191.38 600.91 1186.18 601 1178.83 601ZM1114.27 601V417.004C1114.27 415.569 1114.54 414.583 1115.07 414.045C1115.61 413.507 1117.41 413.148 1120.45 412.969C1123.5 412.79 1128.7 412.7 1136.06 412.7V596.696C1136.06 598.131 1135.79 599.117 1135.25 599.655C1134.71 600.193 1132.92 600.552 1129.87 600.731C1126.82 600.91 1121.62 601 1114.27 601ZM1125.03 509.809V489.365H1188.78V509.809H1125.03ZM1224.34 601V417.004C1224.34 417.004 1224.52 416.287 1224.87 414.852C1225.41 413.417 1226.76 412.7 1228.91 412.7H1293.47C1293.47 418.618 1293.38 422.922 1293.2 425.612C1293.02 428.302 1292.66 430.095 1292.12 430.992C1291.59 431.889 1290.69 432.337 1289.43 432.337H1246.13V581.363H1292.39C1292.39 587.46 1292.3 591.944 1292.12 594.813C1291.95 597.503 1291.59 599.207 1291.05 599.924C1290.51 600.641 1289.52 601 1288.09 601H1224.34ZM1227.3 508.464V488.558H1286.74C1286.74 496.807 1286.57 502.187 1286.21 504.698C1285.85 507.209 1284.68 508.464 1282.71 508.464H1227.3ZM1340.9 603.69C1328.52 603.69 1319.47 601.986 1313.73 598.579C1308.17 594.992 1305.39 591.316 1305.39 587.55C1305.39 585.398 1305.84 582.887 1306.74 580.018C1307.63 576.969 1309.07 574.279 1311.04 571.948C1313.91 574.638 1317.58 576.88 1322.07 578.673C1326.73 580.466 1332.29 581.363 1338.75 581.363C1348.25 581.363 1354.98 578.852 1358.92 573.831C1363.05 568.81 1365.11 562.174 1365.11 553.925C1365.11 547.828 1363.94 542.179 1361.61 536.978C1359.46 531.777 1355.42 525.77 1349.51 518.955L1322.61 487.482C1316.51 479.95 1312.12 473.225 1309.43 467.307C1306.91 461.21 1305.66 454.933 1305.66 448.477C1305.66 437.179 1309.6 427.943 1317.5 420.77C1325.57 413.597 1337.04 410.01 1351.93 410.01C1364.66 410.01 1373.72 411.355 1379.1 414.045C1384.48 416.556 1387.17 419.694 1387.17 423.46C1387.17 425.253 1386.72 427.316 1385.82 429.647C1384.92 431.799 1383.58 433.861 1381.79 435.834C1379.99 434.579 1376.68 433.234 1371.83 431.799C1367.17 430.185 1361.7 429.378 1355.42 429.378C1347.35 429.378 1340.9 430.992 1336.06 434.22C1331.39 437.448 1329.06 442.021 1329.06 447.939C1329.06 452.781 1330.14 457.264 1332.29 461.389C1334.62 465.334 1337.76 469.728 1341.71 474.57L1370.76 507.657C1377.75 515.906 1382.5 523.438 1385.01 530.253C1387.52 537.068 1388.78 544.689 1388.78 553.118C1388.78 562.085 1387.26 570.424 1384.21 578.135C1381.34 585.846 1376.41 592.033 1369.41 596.696C1362.6 601.359 1353.09 603.69 1340.9 603.69Z" fill="black"/>
</svg>
